<?xml version="1.0" encoding="UTF-8" standalone="no"?>
<svg
   xmlns:dc="http://purl.org/dc/elements/1.1/"
   xmlns:cc="http://creativecommons.org/ns#"
   xmlns:rdf="http://www.w3.org/1999/02/22-rdf-syntax-ns#"
   xmlns:svg="http://www.w3.org/2000/svg"
   xmlns="http://www.w3.org/2000/svg"
   xmlns:sodipodi="http://sodipodi.sourceforge.net/DTD/sodipodi-0.dtd"
   xmlns:inkscape="http://www.inkscape.org/namespaces/inkscape"
   aria-hidden="true"
   focusable="false"
   data-prefix="fas"
   data-icon="terminal"
   class="svg-inline--fa fa-terminal fa-w-20"
   role="img"
   viewBox="0 0 640 640"
   version="1.1"
   id="svg896"
   sodipodi:docname="icon.svg"
   width="640"
   height="640"
   inkscape:version="0.92.4 (5da689c313, 2019-01-14)">
  <metadata
     id="metadata902">
    <rdf:RDF>
      <cc:Work
         rdf:about="">
        <dc:format>image/svg+xml</dc:format>
        <dc:type
           rdf:resource="http://purl.org/dc/dcmitype/StillImage" />
        <dc:title />
      </cc:Work>
    </rdf:RDF>
  </metadata>
  <defs
     id="defs900" />
  <sodipodi:namedview
     pagecolor="#ffffff"
     bordercolor="#666666"
     borderopacity="1"
     objecttolerance="10"
     gridtolerance="10"
     guidetolerance="10"
     inkscape:pageopacity="0"
     inkscape:pageshadow="2"
     inkscape:window-width="1366"
     inkscape:window-height="749"
     id="namedview898"
     showgrid="false"
     inkscape:zoom="0.4609375"
     inkscape:cx="240.81356"
     inkscape:cy="256"
     inkscape:window-x="0"
     inkscape:window-y="19"
     inkscape:window-maximized="0"
     inkscape:current-layer="svg896" />
  <rect
     style="fill:#cccccc;fill-opacity:1;stroke:#cccccc;stroke-width:157.24423218;stroke-linecap:round;stroke-linejoin:round;stroke-miterlimit:4;stroke-dasharray:none;stroke-dashoffset:0;stroke-opacity:1;opacity:0"
     id="rect1447"
     width="444.44528"
     height="444.44528"
     x="97.777374"
     y="97.777374" />
  <path
     d="M 264.78469,339.91424 84.963489,519.73543 c -8.672619,8.67264 -22.73313,8.67264 -31.40483,0 L 32.584471,498.76218 c -8.657829,-8.65782 -8.674485,-22.68968 -0.03704,-31.36783 L 175.06054,324.21137 32.548376,181.0293 c -8.637457,-8.67816 -8.620802,-22.70999 0.03704,-31.36783 l 20.973282,-20.97325 c 8.672606,-8.67264 22.73313,-8.67264 31.404817,0 L 264.78472,308.50941 c 8.67261,8.67169 8.67261,22.73221 0,31.40483 z m 353.47356,169.35261 v -29.60889 c 0,-12.26453 -9.94209,-22.20665 -22.20667,-22.20665 H 314.76725 c -12.26454,0 -22.20666,9.94212 -22.20666,22.20665 v 29.60889 c 0,12.26454 9.94212,22.20666 22.20666,22.20666 h 281.28433 c 12.26458,0 22.20667,-9.94212 22.20667,-22.20666 z"
     id="path894"
     inkscape:connector-curvature="0"
     style="fill:#4d4d4d;stroke-width:0.92527747" />
</svg>
